# xmcd
# 
# Track frame offsets:
#     150
#     13315
#     24471
#     43001
#     56792
#     67683
#     83300
#     98431
#     111426
#     122551
#     136892
#     150634
#     162611
#     174806
# 
# Disc length: 2520
# 
# Revision: 1
# Processed by: cddbd v1.5.2PL0 Copyright (c) Steve Scherf et al.
# Submitted via: fre:ac v1.0.31
# 
DISCID=a609d60e
DTITLE=Various Artist - MTV Unplugged [CD 1)
DYEAR=2019
DGENRE=Blues
TTITLE0=Max Raabe and Palast Orchester - Ich geh durch den Park an einem Donnerstag
TTITLE1=Max Raabe and Palast Orchester mit Lea - Guten Tag, liebes Glück
TTITLE2=Max Raabe and Palast Orchester mit Samy Deluxe - Der perfekte Moment... wird heut verpennt
TTITLE3=Max Raabe and Palast Orchester - Fahrrad fahr'n
TTITLE4=Max Raabe and Palast Orchester - Du bist viel zu schön für einen Mann allein
TTITLE5=Max Raabe and Palast Orchester mit Lars Eidinger - Moritat von Mackie Messer
TTITLE6=Max Raabe and Palast Orchester - Cheek To Cheek
TTITLE7=Max Raabe and Palast Orchester - Warum
TTITLE8=Max Raabe and Palast Orchester - Kleine Lügen
TTITLE9=Max Raabe and Palast Orchester mit Herbert Grönemeyer - Du weißt nichts von Liebe
TTITLE10=Max Raabe and Palast Orchester mit Namika - Küssen kann man nicht alleine
TTITLE11=Max Raabe and Palast Orchester - Just One Of Those Things
TTITLE12=Max Raabe and Palast Orchester - Lonely Dancer
TTITLE13=Max Raabe and Palast Orchester mit Pawel Popolski - Kein Schwein ruft mich an - Polka
EXTD=
EXTT0=
EXTT1=
EXTT2=
EXTT3=
EXTT4=
EXTT5=
EXTT6=
EXTT7=
EXTT8=
EXTT9=
EXTT10=
EXTT11=
EXTT12=
EXTT13=
PLAYORDER=
